<svg width="1280" height="920" viewBox="0 0 1280 920" fill="none" xmlns="http://www.w3.org/2000/svg">
  <rect width="1280" height="920" rx="36" fill="#F3F8E8"/>
  <rect x="130" y="150" width="250" height="620" rx="20" fill="#7AAC23"/>
  <rect x="140" y="165" width="230" height="180" rx="14" fill="#FFFFFF" fill-opacity="0.23"/>
  <text x="164" y="256" fill="#ffffff" font-size="36" font-family="Inter, sans-serif" font-weight="700">INSPIRE</text>
  <rect x="360" y="126" width="268" height="654" rx="20" fill="#D97B2D"/>
  <rect x="372" y="144" width="244" height="170" rx="14" fill="#FFFFFF" fill-opacity="0.25"/>
  <text x="398" y="244" fill="#ffffff" font-size="34" font-family="Inter, sans-serif" font-weight="700">READ</text>
  <rect x="616" y="174" width="274" height="600" rx="20" fill="#1F2933"/>
  <rect x="630" y="192" width="248" height="166" rx="14" fill="#FFFFFF" fill-opacity="0.16"/>
  <text x="664" y="292" fill="#ffffff" font-size="30" font-family="Inter, sans-serif" font-weight="700">DISCOVER</text>
  <rect x="860" y="210" width="284" height="560" rx="20" fill="#6C8F1E"/>
  <rect x="874" y="228" width="258" height="160" rx="14" fill="#FFFFFF" fill-opacity="0.2"/>
  <text x="918" y="320" fill="#ffffff" font-size="28" font-family="Inter, sans-serif" font-weight="700">STORIES</text>
  <circle cx="210" cy="770" r="54" fill="#D97B2D" fill-opacity="0.85"/>
  <circle cx="1080" cy="124" r="70" fill="#7AAC23" fill-opacity="0.3"/>
  <circle cx="994" cy="776" r="56" fill="#1F2933" fill-opacity="0.2"/>
</svg>
